<?xml version="1.0" standalone="no"?>
<!DOCTYPE svg PUBLIC "-//W3C//DTD SVG 20010904//EN"
 "http://www.w3.org/TR/2001/REC-SVG-20010904/DTD/svg10.dtd">
<svg version="1.0" xmlns="http://www.w3.org/2000/svg"
 width="400.000000pt" height="400.000000pt" viewBox="0 0 400.000000 400.000000"
 preserveAspectRatio="xMidYMid meet">
<metadata>
Created by potrace 1.14, written by Peter Selinger 2001-2017
</metadata>
<g transform="translate(0.000000,400.000000) scale(0.100000,-0.100000)"
fill="#000000" stroke="none">
<path d="M1915 3336 c-42 -18 -83 -69 -91 -112 -14 -75 36 -208 114 -303 l36
-44 38 44 c21 24 55 77 76 118 32 64 37 85 37 142 0 72 -14 103 -67 142 -33
25 -104 31 -143 13z m134 -35 c72 -39 67 -177 -9 -216 -89 -46 -195 16 -192
112 4 104 103 156 201 104z"/>
<path d="M1941 3297 c-128 -45 -75 -236 57 -206 113 25 111 183 -3 213 -11 2
-35 -1 -54 -7z m94 -42 c54 -53 16 -145 -60 -145 -49 0 -85 36 -85 85 0 76 92
114 145 60z"/>
<path d="M1309 3320 c-1 -3 -2 -142 -3 -310 l-1 -305 -314 -3 c-269 -2 -312
-4 -307 -17 3 -8 1 -17 -3 -19 -10 -7 -6 -56 6 -66 4 -3 28 -12 53 -19 80 -23
144 -57 219 -116 37 -28 181 -177 181 -186 0 -4 6 -14 13 -21 21 -22 77 -106
77 -116 0 -6 4 -12 9 -14 5 -1 21 -27 36 -57 21 -43 24 -55 13 -62 -7 -5 -10
-9 -6 -9 4 0 -9 -28 -31 -62 -162 -265 -343 -430 -514 -468 -45 -11 -55 -16
-52 -31 2 -11 0 -19 -4 -19 -4 0 -7 -10 -5 -22 1 -13 3 -29 3 -35 1 -10 70
-13 311 -13 199 0 310 -4 311 -10 1 -5 3 -140 4 -300 1 -159 3 -296 4 -303 1
-11 51 -16 93 -8 8 1 23 42 20 55 -2 4 3 14 9 22 6 8 9 14 5 14 -9 0 30 75 73
140 44 68 178 202 242 245 9 6 40 26 70 46 30 20 78 49 108 64 l53 28 37 -19
c107 -55 280 -184 349 -259 89 -97 177 -251 174 -307 -1 -23 25 -36 68 -33 19
1 37 3 40 4 3 0 5 139 5 309 l0 307 310 3 c314 2 341 6 313 39 -6 7 -6 13 -1
13 5 0 8 13 5 28 -3 25 -10 30 -51 41 -25 6 -67 23 -91 36 -25 13 -56 30 -70
37 -100 52 -280 262 -369 430 l-30 58 27 47 c27 49 65 110 80 128 5 6 13 17
18 26 28 48 156 189 209 229 86 66 153 102 227 120 32 8 47 17 47 29 0 9 2 32
3 51 l3 35 -315 5 -315 5 0 310 0 310 -40 1 c-53 0 -77 -6 -72 -20 6 -17 -37
-118 -77 -185 -77 -125 -248 -274 -439 -380 -46 -25 -58 -23 -146 30 -34 22
-67 39 -72 39 -5 0 -9 4 -9 8 0 4 -12 15 -27 24 -79 47 -228 194 -273 269 -36
60 -67 128 -79 170 l-13 46 -49 -1 c-27 -1 -50 -3 -50 -6z m165 -347 c25 -32
57 -62 189 -179 28 -24 139 -95 217 -139 62 -34 92 -45 111 -41 42 8 216 112
304 182 111 87 176 152 228 229 15 22 28 37 28 35 1 -3 2 -106 3 -230 l1 -225
234 -3 233 -2 -43 -32 c-51 -37 -110 -90 -153 -137 -17 -19 -41 -45 -53 -59
-12 -13 -25 -33 -28 -43 -4 -11 -11 -17 -16 -14 -5 4 -9 2 -9 -3 0 -9 -79
-135 -100 -159 -5 -7 -10 -15 -10 -18 0 -4 -12 -31 -26 -61 l-25 -54 41 -77
c23 -43 48 -85 54 -93 7 -8 18 -27 26 -42 7 -15 21 -37 32 -47 10 -11 18 -23
18 -25 0 -20 167 -194 234 -243 l58 -43 -234 0 -234 0 1 -224 c0 -250 6 -237
-65 -147 -31 40 -85 94 -157 158 -80 70 -320 213 -357 213 -33 0 -260 -139
-349 -214 -28 -22 -73 -65 -101 -95 -28 -30 -58 -62 -68 -72 -9 -10 -14 -19
-12 -21 2 -3 -6 -14 -19 -26 l-22 -21 0 225 1 224 -229 0 -229 0 58 43 c59 43
152 135 196 192 12 17 26 32 30 33 5 2 8 10 8 18 0 8 4 14 8 14 9 0 118 179
147 241 l18 37 -48 88 c-27 49 -52 91 -57 92 -4 2 -8 8 -8 13 0 39 -196 264
-294 336 l-58 43 228 0 229 0 0 223 c-1 122 1 226 3 230 2 5 12 -3 21 -16 9
-14 29 -42 45 -64z"/>
<path d="M1999 2275 c-14 -47 -19 -49 -81 -45 -37 2 -35 -10 7 -39 40 -27 40
-25 20 -80 -8 -22 -11 -41 -8 -41 3 0 21 11 39 25 18 14 36 25 40 25 4 0 22
-11 40 -25 18 -14 35 -25 38 -25 3 0 -2 21 -11 47 -16 46 -16 46 8 64 70 51
69 48 11 46 l-52 -2 -16 47 c-9 27 -17 48 -19 48 -1 0 -9 -20 -16 -45z"/>
<path d="M1826 1932 l-18 -53 -39 4 c-52 5 -56 -5 -14 -37 l34 -26 -14 -48
c-8 -26 -15 -49 -15 -50 0 -2 18 11 41 28 l40 33 44 -32 44 -32 -14 42 c-20
57 -20 61 20 88 40 27 38 36 -8 33 -42 -3 -51 4 -69 58 l-15 45 -17 -53z"/>
<path d="M2169 1933 c-14 -45 -18 -48 -50 -50 -72 -3 -72 0 -5 -48 17 -12 17
-17 3 -64 l-15 -51 44 31 43 32 40 -33 c23 -17 41 -30 41 -28 0 1 -7 24 -15
51 l-14 47 41 30 41 30 -29 1 c-16 1 -39 0 -51 0 -17 -2 -24 7 -38 48 -9 28
-18 51 -19 51 -1 0 -9 -21 -17 -47z"/>
<path d="M1986 1177 c-47 -114 -181 -271 -292 -343 -33 -21 -61 -39 -63 -41
-6 -4 -8 -73 -2 -73 3 0 41 22 84 50 89 57 207 171 256 247 l33 52 39 -58 c63
-94 208 -224 310 -276 l29 -16 0 34 c0 30 -6 38 -57 72 -118 78 -225 199 -291
329 l-30 59 -16 -36z"/>
<path d="M1980 987 c-42 -65 -160 -176 -262 -244 -93 -62 -97 -66 -95 -99 1
-19 3 -34 4 -34 2 0 35 19 74 43 93 55 219 157 265 212 l36 44 78 -78 c67 -68
276 -221 302 -221 4 0 8 15 8 34 0 32 -6 38 -83 89 -98 64 -204 160 -262 238
l-41 55 -24 -39z"/>
</g>
</svg>
